<svg data-v-423bf9ae="" xmlns="http://www.w3.org/2000/svg" viewBox="0 0 393.8820394153985 60" class="font"><!----><!----><defs data-v-423bf9ae=""><linearGradient data-v-423bf9ae="" gradientTransform="rotate(25)" id="3916e5bc-1034-48ab-9a15-c40d58674aab" x1="0%" y1="0%" x2="100%" y2="0%"><stop data-v-423bf9ae="" offset="0%" style="stop-color: rgb(81, 164, 251); stop-opacity: 1;"></stop><stop data-v-423bf9ae="" offset="100%" style="stop-color: rgb(81, 164, 251); stop-opacity: 1;"></stop></linearGradient></defs><g data-v-423bf9ae="" id="1d2d1fbd-0a12-43c5-8ab5-18024e22452d" fill="url(#3916e5bc-1034-48ab-9a15-c40d58674aab)" transform="matrix(5.759321212768555,0,0,5.759321212768555,-4.031539440155029,-18.948165893554688)"><path d="M2.49 6.27L2.49 6.27L6.76 6.27L3.50 11.98L6.57 11.98L6.57 13.52L0.70 13.52L3.96 7.81L2.81 7.81L2.81 7.81Q2.60 7.81 2.36 7.83L2.36 7.83L2.36 7.83Q2.11 7.85 1.90 7.93L1.90 7.93L1.90 7.93Q1.68 8.01 1.52 8.14L1.52 8.14L1.52 8.14Q1.36 8.27 1.32 8.50L1.32 8.50L1.32 8.50Q1.04 8.25 0.93 7.86L0.93 7.86L0.93 7.86Q0.83 7.48 0.94 7.13L0.94 7.13L0.94 7.13Q1.05 6.78 1.43 6.52L1.43 6.52L1.43 6.52Q1.81 6.27 2.49 6.27ZM11.68 6.10L11.68 6.10L11.68 6.10Q12.78 6.10 13.64 6.64L13.64 6.64L13.64 6.64Q14.50 7.17 14.99 7.99L14.99 7.99L14.99 7.99Q15.48 8.82 15.52 9.83L15.52 9.83L15.52 9.83Q15.55 10.84 15.01 11.80L15.01 11.80L15.01 11.80Q14.55 12.60 13.80 13.08L13.80 13.08L13.80 13.08Q13.06 13.55 12.22 13.67L12.22 13.67L12.22 13.67Q11.38 13.79 10.54 13.53L10.54 13.53L10.54 13.53Q9.69 13.27 9.02 12.60L9.02 12.60L9.02 12.60Q8.26 11.83 8.01 10.82L8.01 10.82L8.01 10.82Q7.76 9.81 8.05 8.81L8.05 8.81L8.05 8.81Q8.18 8.40 8.46 8.13L8.46 8.13L8.46 8.13Q8.75 7.87 9.11 7.74L9.11 7.74L9.11 7.74Q9.48 7.62 9.87 7.63L9.87 7.63L9.87 7.63Q10.26 7.64 10.60 7.79L10.60 7.79L10.60 7.79Q10.93 7.94 11.16 8.21L11.16 8.21L11.16 8.21Q11.40 8.48 11.44 8.88L11.44 8.88L11.44 8.88Q11.23 8.72 10.93 8.71L10.93 8.71L10.93 8.71Q10.64 8.71 10.37 8.84L10.37 8.84L10.37 8.84Q10.09 8.97 9.90 9.25L9.90 9.25L9.90 9.25Q9.72 9.52 9.72 9.93L9.72 9.93L9.72 9.93Q9.72 10.63 10.01 11.09L10.01 11.09L10.01 11.09Q10.30 11.55 10.74 11.78L10.74 11.78L10.74 11.78Q11.19 12.01 11.70 12.01L11.70 12.01L11.70 12.01Q12.21 12.01 12.65 11.77L12.65 11.77L12.65 11.77Q13.09 11.54 13.38 11.07L13.38 11.07L13.38 11.07Q13.68 10.60 13.68 9.90L13.68 9.90L13.68 9.90Q13.68 9.35 13.48 8.93L13.48 8.93L13.48 8.93Q13.29 8.51 12.96 8.24L12.96 8.24L12.96 8.24Q12.63 7.97 12.19 7.86L12.19 7.86L12.19 7.86Q11.76 7.76 11.27 7.85L11.27 7.85L11.27 7.85Q11.06 7.60 10.76 7.46L10.76 7.46L10.76 7.46Q10.46 7.31 10.11 7.26L10.11 7.26L10.11 7.26Q9.76 7.21 9.41 7.27L9.41 7.27L9.41 7.27Q9.06 7.34 8.75 7.52L8.75 7.52L8.75 7.52Q9.31 6.85 10.05 6.48L10.05 6.48L10.05 6.48Q10.79 6.10 11.68 6.10ZM20.16 6.10L20.16 6.10L20.16 6.10Q21.27 6.10 22.13 6.64L22.13 6.64L22.13 6.64Q22.99 7.17 23.48 7.99L23.48 7.99L23.48 7.99Q23.97 8.82 24.00 9.83L24.00 9.83L24.00 9.83Q24.04 10.84 23.49 11.80L23.49 11.80L23.49 11.80Q23.03 12.60 22.29 13.08L22.29 13.08L22.29 13.08Q21.55 13.55 20.71 13.67L20.71 13.67L20.71 13.67Q19.87 13.79 19.02 13.53L19.02 13.53L19.02 13.53Q18.17 13.27 17.50 12.60L17.50 12.60L17.50 12.60Q16.74 11.83 16.49 10.82L16.49 10.82L16.49 10.82Q16.24 9.81 16.53 8.81L16.53 8.81L16.53 8.81Q16.66 8.40 16.95 8.13L16.95 8.13L16.95 8.13Q17.23 7.87 17.60 7.74L17.60 7.74L17.60 7.74Q17.96 7.62 18.35 7.63L18.35 7.63L18.35 7.63Q18.75 7.64 19.08 7.79L19.08 7.79L19.08 7.79Q19.42 7.94 19.65 8.21L19.65 8.21L19.65 8.21Q19.88 8.48 19.92 8.88L19.92 8.88L19.92 8.88Q19.71 8.72 19.42 8.71L19.42 8.71L19.42 8.71Q19.12 8.71 18.85 8.84L18.85 8.84L18.85 8.84Q18.58 8.97 18.39 9.25L18.39 9.25L18.39 9.25Q18.20 9.52 18.20 9.93L18.20 9.93L18.20 9.93Q18.20 10.63 18.49 11.09L18.49 11.09L18.49 11.09Q18.79 11.55 19.23 11.78L19.23 11.78L19.23 11.78Q19.67 12.01 20.18 12.01L20.18 12.01L20.18 12.01Q20.69 12.01 21.13 11.77L21.13 11.77L21.13 11.77Q21.57 11.54 21.87 11.07L21.87 11.07L21.87 11.07Q22.16 10.60 22.16 9.90L22.16 9.90L22.16 9.90Q22.16 9.35 21.97 8.93L21.97 8.93L21.97 8.93Q21.77 8.51 21.44 8.24L21.44 8.24L21.44 8.24Q21.11 7.97 20.68 7.86L20.68 7.86L20.68 7.86Q20.24 7.76 19.75 7.85L19.75 7.85L19.75 7.85Q19.54 7.60 19.24 7.46L19.24 7.46L19.24 7.46Q18.94 7.31 18.59 7.26L18.59 7.26L18.59 7.26Q18.24 7.21 17.89 7.27L17.89 7.27L17.89 7.27Q17.54 7.34 17.23 7.52L17.23 7.52L17.23 7.52Q17.79 6.85 18.54 6.48L18.54 6.48L18.54 6.48Q19.28 6.10 20.16 6.10ZM26.95 6.29L26.95 7.11L26.95 7.11Q27.06 6.86 27.29 6.68L27.29 6.68L27.29 6.68Q27.51 6.50 27.79 6.38L27.79 6.38L27.79 6.38Q28.07 6.26 28.36 6.19L28.36 6.19L28.36 6.19Q28.66 6.12 28.91 6.10L28.91 6.10L28.91 6.10Q29.44 6.06 29.97 6.24L29.97 6.24L29.97 6.24Q30.49 6.41 30.91 6.85L30.91 6.85L30.91 6.85Q31.04 6.99 31.14 7.13L31.14 7.13L31.14 7.13Q31.25 7.28 31.32 7.46L31.32 7.46L31.32 7.46Q31.36 7.15 31.57 6.91L31.57 6.91L31.57 6.91Q31.78 6.66 32.08 6.49L32.08 6.49L32.08 6.49Q32.38 6.31 32.73 6.22L32.73 6.22L32.73 6.22Q33.08 6.12 33.42 6.10L33.42 6.10L33.42 6.10Q33.96 6.06 34.49 6.24L34.49 6.24L34.49 6.24Q35.01 6.41 35.46 6.85L35.46 6.85L35.46 6.85Q36.09 7.50 36.09 8.74L36.09 8.74L36.09 13.52L34.27 13.52L34.27 13.52Q34.27 13.29 34.27 12.88L34.27 12.88L34.27 12.88Q34.27 12.47 34.27 11.99L34.27 11.99L34.27 11.99Q34.26 11.51 34.26 10.99L34.26 10.99L34.26 10.99Q34.26 10.47 34.24 10.01L34.24 10.01L34.24 10.01Q34.23 9.55 34.21 9.18L34.21 9.18L34.21 9.18Q34.19 8.82 34.16 8.65L34.16 8.65L34.16 8.65Q34.01 7.74 33.14 7.70L33.14 7.70L33.14 7.70Q32.65 7.69 32.32 7.98L32.32 7.98L32.32 7.98Q31.99 8.27 32.00 8.69L32.00 8.69L32.00 8.69Q31.88 8.65 31.75 8.55L31.75 8.55L31.75 8.55Q31.63 8.44 31.53 8.30L31.53 8.30L31.53 8.30Q31.54 8.41 31.54 8.52L31.54 8.52L31.54 8.52Q31.54 8.62 31.54 8.74L31.54 8.74L31.54 13.52L29.75 13.52L29.75 13.52Q29.75 13.29 29.76 12.88L29.76 12.88L29.76 12.88Q29.76 12.47 29.76 11.99L29.76 11.99L29.76 11.99Q29.76 11.51 29.76 10.99L29.76 10.99L29.76 10.99Q29.76 10.47 29.75 10.01L29.75 10.01L29.75 10.01Q29.74 9.55 29.71 9.18L29.71 9.18L29.71 9.18Q29.68 8.82 29.64 8.65L29.64 8.65L29.64 8.65Q29.53 8.20 29.22 7.98L29.22 7.98L29.22 7.98Q28.91 7.76 28.55 7.76L28.55 7.76L28.55 7.76Q28.06 7.76 27.79 8.02L27.79 8.02L27.79 8.02Q27.52 8.27 27.52 8.69L27.52 8.69L27.52 8.69Q27.36 8.64 27.19 8.46L27.19 8.46L27.19 8.46Q27.02 8.29 26.95 8.09L26.95 8.09L26.95 13.52L25.13 13.52L25.13 6.29L26.95 6.29ZM42.74 13.51L42.74 12.74L42.74 12.74Q42.22 13.24 41.62 13.48L41.62 13.48L41.62 13.48Q41.01 13.71 40.39 13.69L40.39 13.69L40.39 13.69Q39.77 13.66 39.20 13.41L39.20 13.41L39.20 13.41Q38.63 13.15 38.19 12.66L38.19 12.66L38.19 12.66Q37.74 12.18 37.48 11.51L37.48 11.51L37.48 11.51Q37.21 10.84 37.21 9.98L37.21 9.98L37.21 9.98Q37.21 9.16 37.50 8.47L37.50 8.47L37.50 8.47Q37.79 7.78 38.27 7.29L38.27 7.29L38.27 7.29Q38.75 6.79 39.37 6.52L39.37 6.52L39.37 6.52Q39.98 6.26 40.66 6.29L40.66 6.29L40.66 6.29Q41.36 6.31 41.76 6.58L41.76 6.58L41.76 6.58Q42.15 6.85 42.33 7.20L42.33 7.20L42.33 7.20Q42.50 7.55 42.50 7.90L42.50 7.90L42.50 7.90Q42.49 8.26 42.36 8.48L42.36 8.48L42.36 8.48Q42.13 8.15 41.70 8.03L41.70 8.03L41.70 8.03Q41.27 7.91 40.89 7.91L40.89 7.91L40.89 7.91Q40.26 7.91 39.84 8.22L39.84 8.22L39.84 8.22Q39.41 8.53 39.19 8.99L39.19 8.99L39.19 8.99Q38.98 9.45 38.98 9.99L38.98 9.99L38.98 9.99Q38.98 10.53 39.19 10.99L39.19 10.99L39.19 10.99Q39.40 11.45 39.82 11.76L39.82 11.76L39.82 11.76Q40.24 12.07 40.88 12.07L40.88 12.07L40.88 12.07Q41.43 12.07 41.78 11.82L41.78 11.82L41.78 11.82Q42.14 11.58 42.35 11.19L42.35 11.19L42.35 11.19Q42.56 10.79 42.65 10.31L42.65 10.31L42.65 10.31Q42.74 9.83 42.74 9.35L42.74 9.35L42.74 3.74L42.74 3.74Q43.57 3.77 44.04 4.19L44.04 4.19L44.04 4.19Q44.51 4.61 44.51 5.17L44.51 5.17L44.51 13.51L42.74 13.51ZM45.91 13.52L45.91 6.24L47.47 6.24L47.47 7.17L47.47 7.17Q47.71 6.68 48.08 6.39L48.08 6.39L48.08 6.39Q48.45 6.10 48.90 6.08L48.90 6.08L48.90 6.08Q49.49 6.03 49.85 6.29L49.85 6.29L49.85 6.29Q50.22 6.55 50.37 6.92L50.37 6.92L50.37 6.92Q50.51 7.29 50.44 7.68L50.44 7.68L50.44 7.68Q50.37 8.06 50.06 8.29L50.06 8.29L50.06 8.29Q49.94 7.94 49.58 7.83L49.58 7.83L49.58 7.83Q49.22 7.73 48.83 7.86L48.83 7.86L48.83 7.86Q48.44 7.99 48.13 8.36L48.13 8.36L48.13 8.36Q47.81 8.72 47.75 9.31L47.75 9.31L47.75 9.31Q47.73 9.65 47.73 9.98L47.73 9.98L47.73 9.98Q47.73 10.30 47.73 10.58L47.73 10.58L47.73 13.52L45.91 13.52ZM51.49 13.52L51.49 7.74L51.49 7.74Q51.52 7.32 51.67 7.04L51.67 7.04L51.67 7.04Q51.81 6.76 52.05 6.59L52.05 6.59L52.05 6.59Q52.29 6.43 52.61 6.35L52.61 6.35L52.61 6.35Q52.92 6.27 53.30 6.27L53.30 6.27L53.30 13.52L51.49 13.52ZM52.40 3.29L52.40 3.29L52.40 3.29Q52.88 3.29 53.21 3.64L53.21 3.64L53.21 3.64Q53.56 3.98 53.56 4.47L53.56 4.47L53.56 4.47Q53.56 4.96 53.23 5.31L53.23 5.31L53.23 5.31Q53.03 5.50 52.77 5.58L52.77 5.58L52.77 5.58Q52.51 5.66 52.26 5.73L52.26 5.73L52.26 5.73Q52.00 5.81 51.78 5.92L51.78 5.92L51.78 5.92Q51.56 6.02 51.48 6.26L51.48 6.26L51.48 6.26Q51.41 6.03 51.33 5.68L51.33 5.68L51.33 5.68Q51.25 5.33 51.23 4.96L51.23 4.96L51.23 4.96Q51.21 4.58 51.27 4.22L51.27 4.22L51.27 4.22Q51.34 3.86 51.58 3.63L51.58 3.63L51.58 3.63Q51.91 3.29 52.40 3.29ZM57.64 13.52L54.54 6.29L56.41 6.29L58.23 10.56L59.60 7.39L59.60 7.39Q59.74 7.08 59.95 6.83L59.95 6.83L59.95 6.83Q60.16 6.57 60.44 6.40L60.44 6.40L60.44 6.40Q60.72 6.23 61.09 6.18L61.09 6.18L61.09 6.18Q61.46 6.13 61.92 6.23L61.92 6.23L58.80 13.52L57.64 13.52ZM67.26 10.72L67.26 10.72L67.26 10.72Q66.50 10.92 65.88 10.86L65.88 10.86L65.88 10.86Q65.25 10.81 64.86 10.56L64.86 10.56L64.86 10.56Q64.46 10.32 64.32 9.91L64.32 9.91L64.32 9.91Q64.19 9.49 64.40 8.97L64.40 8.97L64.40 8.97Q64.83 9.34 65.41 9.37L65.41 9.37L65.41 9.37Q65.98 9.41 66.51 9.35L66.51 9.35L66.51 9.35Q66.96 9.31 67.19 9.16L67.19 9.16L67.19 9.16Q67.42 9.00 67.48 8.80L67.48 8.80L67.48 8.80Q67.54 8.60 67.44 8.37L67.44 8.37L67.44 8.37Q67.34 8.15 67.12 7.97L67.12 7.97L67.12 7.97Q66.91 7.78 66.59 7.67L66.59 7.67L66.59 7.67Q66.28 7.56 65.90 7.57L65.90 7.57L65.90 7.57Q65.49 7.60 65.13 7.77L65.13 7.77L65.13 7.77Q64.76 7.94 64.48 8.23L64.48 8.23L64.48 8.23Q64.20 8.53 64.04 8.92L64.04 8.92L64.04 8.92Q63.87 9.31 63.85 9.79L63.85 9.79L63.85 9.79Q63.84 10.18 63.95 10.56L63.95 10.56L63.95 10.56Q64.05 10.93 64.26 11.25L64.26 11.25L64.26 11.25Q64.47 11.56 64.76 11.78L64.76 11.78L64.76 11.78Q65.06 12.00 65.44 12.05L65.44 12.05L65.44 12.05Q65.97 12.15 66.53 11.98L66.53 11.98L66.53 11.98Q67.09 11.82 67.52 11.37L67.52 11.37L68.99 12.08L68.99 12.08Q68.42 12.94 67.63 13.31L67.63 13.31L67.63 13.31Q66.85 13.68 65.84 13.68L65.84 13.68L65.84 13.68Q64.90 13.68 64.20 13.35L64.20 13.35L64.20 13.35Q63.49 13.02 63.02 12.47L63.02 12.47L63.02 12.47Q62.55 11.93 62.32 11.24L62.32 11.24L62.32 11.24Q62.09 10.54 62.10 9.82L62.10 9.82L62.10 9.82Q62.12 9.10 62.38 8.41L62.38 8.41L62.38 8.41Q62.65 7.71 63.15 7.18L63.15 7.18L63.15 7.18Q63.71 6.58 64.46 6.33L64.46 6.33L64.46 6.33Q65.21 6.08 66.00 6.08L66.00 6.08L66.00 6.08Q66.86 6.08 67.49 6.37L67.49 6.37L67.49 6.37Q68.12 6.66 68.52 7.12L68.52 7.12L68.52 7.12Q68.91 7.57 69.03 8.13L69.03 8.13L69.03 8.13Q69.16 8.68 69.01 9.20L69.01 9.20L69.01 9.20Q68.87 9.72 68.43 10.13L68.43 10.13L68.43 10.13Q68.00 10.54 67.26 10.72Z"></path></g><!----><!----></svg>